<?xml version="1.0" standalone="no"?>
<!DOCTYPE svg PUBLIC "-//W3C//DTD SVG 20010904//EN"
 "http://www.w3.org/TR/2001/REC-SVG-20010904/DTD/svg10.dtd">
<svg version="1.0" xmlns="http://www.w3.org/2000/svg"
 width="1900.000000pt" height="1900.000000pt" viewBox="0 0 1900.000000 1900.000000"
 preserveAspectRatio="xMidYMid meet">

<g transform="translate(0.000000,1900.000000) scale(0.100000,-0.100000)"
fill="#000000" stroke="none">
<path d="M9070 18739 c-2796 -127 -5379 -1489 -7057 -3724 -1516 -2019 -2132
-4558 -1712 -7059 241 -1436 831 -2807 1712 -3981 1075 -1431 2526 -2516 4207
-3144 1534 -574 3229 -733 4865 -456 1202 204 2352 642 3400 1297 903 564
1726 1307 2393 2160 1064 1360 1728 3008 1901 4718 37 363 45 532 45 945 0
413 -8 582 -45 945 -111 1097 -422 2169 -918 3160 -885 1770 -2307 3205 -4076
4116 -1444 743 -3076 1097 -4715 1023z m1060 -559 c387 -30 748 -80 1101 -150
2176 -430 4121 -1683 5417 -3490 845 -1177 1376 -2531 1556 -3970 50 -396 60
-582 60 -1075 0 -494 -9 -670 -60 -1073 -311 -2499 -1691 -4729 -3804 -6147
-1176 -789 -2531 -1282 -3940 -1434 -359 -39 -508 -46 -960 -46 -452 0 -601 7
-960 46 -3107 334 -5810 2306 -7075 5159 -338 762 -564 1579 -669 2420 -50
396 -60 582 -60 1075 0 493 10 679 60 1075 297 2370 1550 4496 3492 5927 1332
981 2961 1577 4602 1683 91 6 190 12 220 14 110 7 889 -3 1020 -14z"/>
<path d="M9200 17204 c-653 -36 -1102 -102 -1635 -238 -867 -223 -1631 -561
-2370 -1051 -742 -491 -1387 -1098 -1919 -1805 -219 -291 -518 -751 -479 -736
116 45 360 68 504 47 266 -39 495 -174 651 -384 32 -43 58 -85 58 -93 0 -9
-69 -48 -177 -100 l-178 -85 -24 33 c-46 61 -128 134 -187 165 -99 53 -165 67
-299 67 -105 0 -130 -3 -198 -27 -43 -15 -102 -42 -130 -61 -113 -72 -213
-215 -252 -361 -23 -87 -30 -258 -15 -352 25 -160 81 -275 181 -376 78 -78
172 -128 289 -153 125 -27 296 -7 400 46 66 34 155 108 195 163 l40 55 177
-89 c102 -51 178 -95 178 -103 0 -18 -81 -129 -139 -189 -228 -240 -590 -346
-934 -276 -199 40 -355 122 -495 260 -122 122 -187 233 -271 463 -5 14 -24
-33 -64 -155 -359 -1103 -463 -2288 -301 -3442 284 -2027 1364 -3849 3019
-5092 817 -614 1752 -1061 2750 -1314 650 -164 1231 -235 1925 -235 371 0 553
9 875 45 970 107 1934 404 2775 854 1029 550 1886 1282 2577 2198 574 763
1003 1630 1258 2543 378 1353 378 2787 0 4138 -73 260 -132 438 -256 764 -9
23 -11 21 -54 -36 -48 -66 -120 -127 -202 -174 -29 -17 -53 -33 -53 -36 0 -4
99 -178 220 -387 l220 -380 -222 -3 c-127 -1 -226 2 -231 7 -5 5 -100 166
-212 358 l-202 348 -147 3 -146 3 0 -361 0 -360 -200 0 -200 0 0 550 0 550
400 0 c251 0 419 4 452 11 103 21 191 95 222 187 21 60 20 166 -1 227 -22 67
-93 136 -166 164 -56 20 -73 21 -482 21 l-425 0 0 195 0 195 445 0 c245 0 445
2 445 5 0 11 -138 228 -246 388 -482 710 -1073 1329 -1769 1852 -1194 897
-2599 1420 -4130 1535 -143 11 -728 21 -845 14z m852 -4369 l603 -595 3 585 2
585 200 0 200 0 0 -1065 c0 -939 -2 -1065 -15 -1065 -8 0 -287 271 -620 601
l-605 602 0 -587 0 -586 -200 0 -200 0 0 1060 c0 928 2 1060 15 1060 8 0 286
-268 617 -595z m-4754 548 c5 -16 177 -484 381 -1042 204 -557 371 -1017 371
-1022 0 -6 -95 -8 -226 -7 l-226 3 -257 742 -256 743 -16 -38 c-8 -20 -125
-355 -259 -744 l-245 -708 -228 0 c-138 0 -227 4 -225 9 2 6 174 478 383 1050
l380 1041 207 0 206 0 10 -27z m1342 -143 l0 -170 -200 0 -200 0 0 170 0 170
200 0 200 0 0 -170z m2480 -25 l0 -195 -687 2 -688 3 -3 193 -2 192 690 0 690
0 0 -195z m3168 179 c568 -84 905 -503 879 -1093 -12 -279 -101 -502 -271
-679 -155 -162 -385 -270 -646 -302 -46 -5 -259 -10 -472 -10 l-388 0 0 495 0
495 200 0 200 0 0 -305 0 -305 159 0 c191 0 289 12 397 49 203 69 342 219 400
431 25 90 25 290 0 380 -49 181 -160 317 -321 395 -141 68 -146 68 -612 72
l-423 4 0 195 0 194 396 0 c308 0 420 -3 502 -16z m2070 -11 c5 -16 177 -484
381 -1042 204 -557 371 -1017 371 -1022 0 -6 -95 -8 -226 -7 l-226 3 -257 742
-256 743 -16 -38 c-8 -20 -125 -355 -259 -744 l-245 -708 -228 0 c-138 0 -227
4 -225 9 2 6 174 478 383 1050 l380 1041 207 0 206 0 10 -27z m-7718 -1012 l0
-408 -200 -193 -200 -192 0 601 0 601 200 0 200 0 0 -409z m-3423 174 c128
-38 184 -198 107 -307 -77 -110 -232 -117 -321 -15 -101 115 -46 281 107 328
38 11 52 10 107 -6z m5813 -185 l0 -190 -645 0 -645 0 0 190 0 190 645 0 645
0 0 -190z m-1530 -860 l0 -190 -542 0 -543 0 190 190 190 190 352 0 353 0 0
-190z m1640 0 l0 -190 -700 0 -700 0 0 190 0 190 700 0 700 0 0 -190z m1215
-1150 c157 -40 281 -115 397 -238 269 -285 316 -760 111 -1112 -21 -35 -72
-100 -113 -143 -115 -122 -218 -186 -377 -233 -76 -23 -107 -27 -228 -28 -170
-1 -236 14 -383 86 -214 104 -376 307 -442 553 -27 101 -37 291 -21 395 32
204 111 360 256 505 133 133 250 196 430 231 95 18 267 11 370 -16z m-1145
-110 l0 -120 -635 0 -635 0 0 120 0 120 635 0 635 0 0 -120z m-510 -1045 l0
-585 -120 0 -120 0 0 585 0 585 120 0 120 0 0 -585z m1582 -2060 l603 -595 3
585 2 585 200 0 200 0 0 -1065 c0 -939 -2 -1065 -15 -1065 -8 0 -287 271 -620
601 l-605 602 0 -587 0 -586 -200 0 -200 0 0 1060 c0 928 2 1060 15 1060 8 0
286 -268 617 -595z m3911 575 c26 -6 47 -17 46 -23 0 -7 -53 -88 -118 -182
l-117 -170 -75 -7 c-134 -11 -215 -55 -244 -132 -33 -86 4 -156 113 -214 32
-17 166 -67 297 -112 371 -125 516 -208 612 -348 110 -161 118 -400 21 -601
-48 -99 -159 -206 -268 -260 -140 -68 -217 -84 -417 -85 -94 -1 -174 2 -177 5
-4 3 23 94 59 201 l66 196 61 6 c222 26 356 144 307 273 -30 79 -106 120 -408
220 -344 113 -511 204 -605 333 -65 88 -88 155 -94 279 -6 123 6 188 54 288
86 180 272 305 512 343 73 11 312 5 375 -10z m-8573 -195 l0 -195 -687 2 -688
3 -3 193 -2 192 690 0 690 0 0 -195z m845 -297 l169 -493 -79 -230 c-113 -332
-133 -382 -139 -365 -3 8 -130 362 -282 785 -152 424 -279 776 -281 783 -4 9
44 12 219 12 l224 0 169 -492z m1305 483 c0 -7 -714 -1993 -745 -2073 -7 -16
-26 -18 -211 -18 -112 0 -204 2 -204 5 0 3 693 2023 715 2083 5 15 445 18 445
3z m1580 -186 l0 -195 -687 2 -688 3 -3 193 -2 192 690 0 690 0 0 -195z m3718
3 l-3 -193 -765 0 -765 0 -3 193 -2 192 770 0 770 0 -2 -192z m-568 -1203 l0
-705 -200 0 -200 0 0 705 0 705 200 0 200 0 0 -705z m-6970 345 l0 -190 -645
0 -645 0 0 190 0 190 645 0 645 0 0 -190z m3730 0 l0 -190 -645 0 -645 0 0
190 0 190 645 0 645 0 0 -190z m4366 -545 c16 -17 39 -38 52 -47 l23 -16 -67
-188 c-37 -104 -69 -191 -70 -193 -2 -2 -34 14 -71 34 -96 54 -221 181 -260
265 -17 36 -34 79 -37 96 l-7 30 183 71 182 70 22 -46 c11 -25 34 -60 50 -76z
m-7986 -315 l0 -190 -700 0 -700 0 0 190 0 190 700 0 700 0 0 -190z m3730 0
l0 -190 -700 0 -700 0 0 190 0 190 700 0 700 0 0 -190z"/>
<path d="M10010 10125 c-224 -51 -391 -222 -451 -465 -18 -71 -21 -104 -16
-210 8 -196 60 -323 183 -447 232 -235 623 -227 846 17 71 77 132 196 154 301
25 117 15 290 -23 400 -68 196 -203 333 -383 390 -86 27 -226 33 -310 14z
m211 -518 c96 -64 87 -212 -15 -261 -160 -76 -296 131 -164 250 30 28 43 32
99 33 32 1 56 -6 80 -22z"/>
</g>
</svg>
